<svg width="586" height="76" viewBox="0 0 586 76" fill="none" xmlns="http://www.w3.org/2000/svg">
<rect width="293" height="76" fill="#5C5656"/>
<rect x="293" width="293" height="76" fill="#3DA7E2"/>
<path d="M370.587 46.8618H378.407V50.6358H365.827V26.9038H370.587V46.8618ZM386.193 26.9038V50.6358H381.433V26.9038H386.193ZM411.193 50.6358H406.433L395.655 34.3498V50.6358H390.895V26.8698H395.655L406.433 43.1898V26.8698H411.193V50.6358ZM429.293 50.6358L420.657 40.0618V50.6358H415.897V26.9038H420.657V37.5458L429.293 26.9038H435.039L425.247 38.6678L435.311 50.6358H429.293ZM443.202 30.7458V36.6958H451.192V40.4698H443.202V46.7598H452.212V50.6358H438.442V26.8698H452.212V30.7458H443.202ZM464.834 26.9038C467.327 26.9038 469.515 27.3911 471.396 28.3658C473.3 29.3405 474.762 30.7345 475.782 32.5478C476.825 34.3385 477.346 36.4238 477.346 38.8038C477.346 41.1838 476.825 43.2691 475.782 45.0598C474.762 46.8278 473.3 48.1991 471.396 49.1738C469.515 50.1485 467.327 50.6358 464.834 50.6358H456.538V26.9038H464.834ZM464.664 46.5898C467.157 46.5898 469.084 45.9098 470.444 44.5498C471.804 43.1898 472.484 41.2745 472.484 38.8038C472.484 36.3331 471.804 34.4065 470.444 33.0238C469.084 31.6185 467.157 30.9158 464.664 30.9158H461.298V46.5898H464.664ZM485.669 26.9038V50.6358H480.909V26.9038H485.669ZM510.67 50.6358H505.91L495.132 34.3498V50.6358H490.372V26.8698H495.132L505.91 43.1898V26.8698H510.67V50.6358Z" fill="white"/>
<path d="M83.0349 50.9846C81.3802 50.9846 79.8842 50.7012 78.5469 50.1346C77.2322 49.5679 76.1895 48.7519 75.4189 47.6866C74.6482 46.6212 74.2515 45.3632 74.2289 43.9126H79.3289C79.3969 44.8872 79.7369 45.6579 80.3489 46.2246C80.9835 46.7912 81.8449 47.0746 82.9329 47.0746C84.0435 47.0746 84.9162 46.8139 85.5509 46.2926C86.1855 45.7486 86.5029 45.0459 86.5029 44.1846C86.5029 43.4819 86.2875 42.9039 85.8569 42.4506C85.4262 41.9972 84.8822 41.6459 84.2249 41.3966C83.5902 41.1246 82.7062 40.8299 81.5729 40.5126C80.0315 40.0592 78.7735 39.6172 77.7989 39.1866C76.8469 38.7332 76.0195 38.0646 75.3169 37.1806C74.6369 36.2739 74.2969 35.0726 74.2969 33.5766C74.2969 32.1712 74.6482 30.9472 75.3509 29.9046C76.0535 28.8619 77.0395 28.0686 78.3089 27.5246C79.5782 26.9579 81.0289 26.6746 82.6609 26.6746C85.1089 26.6746 87.0922 27.2752 88.6109 28.4766C90.1522 29.6552 91.0022 31.3099 91.1609 33.4406H85.9249C85.8795 32.6246 85.5282 31.9559 84.8709 31.4346C84.2362 30.8906 83.3862 30.6186 82.3209 30.6186C81.3915 30.6186 80.6435 30.8566 80.0769 31.3326C79.5329 31.8086 79.2609 32.4999 79.2609 33.4066C79.2609 34.0412 79.4649 34.5739 79.8729 35.0046C80.3035 35.4126 80.8249 35.7526 81.4369 36.0246C82.0715 36.2739 82.9555 36.5686 84.0889 36.9086C85.6302 37.3619 86.8882 37.8152 87.8629 38.2686C88.8375 38.7219 89.6762 39.4019 90.3789 40.3086C91.0815 41.2152 91.4329 42.4052 91.4329 43.8786C91.4329 45.1479 91.1042 46.3266 90.4469 47.4146C89.7895 48.5026 88.8262 49.3752 87.5569 50.0326C86.2875 50.6672 84.7802 50.9846 83.0349 50.9846ZM100.32 27.0146V50.7466H95.5596V27.0146H100.32ZM113.319 27.0146C115.812 27.0146 117.999 27.5019 119.881 28.4766C121.785 29.4512 123.247 30.8452 124.267 32.6586C125.309 34.4492 125.831 36.5346 125.831 38.9146C125.831 41.2946 125.309 43.3799 124.267 45.1706C123.247 46.9386 121.785 48.3099 119.881 49.2846C117.999 50.2592 115.812 50.7466 113.319 50.7466H105.023V27.0146H113.319ZM113.149 46.7006C115.642 46.7006 117.569 46.0206 118.929 44.6606C120.289 43.3006 120.969 41.3852 120.969 38.9146C120.969 36.4439 120.289 34.5172 118.929 33.1346C117.569 31.7292 115.642 31.0266 113.149 31.0266H109.783V46.7006H113.149ZM149.08 27.0146V50.7466H144.32V40.6486H134.154V50.7466H129.394V27.0146H134.154V36.7726H144.32V27.0146H149.08ZM168.317 46.2246H158.865L157.301 50.7466H152.303L160.837 26.9806H166.379L174.913 50.7466H169.881L168.317 46.2246ZM167.025 42.4166L163.591 32.4886L160.157 42.4166H167.025ZM198.401 50.7466H193.641L182.863 34.4606V50.7466H178.103V26.9806H182.863L193.641 43.3006V26.9806H198.401V50.7466ZM219.255 27.0146V30.8566H212.931V50.7466H208.171V30.8566H201.847V27.0146H219.255Z" fill="#FFFEFE"/>
</svg>
